<svg xmlns="http://www.w3.org/2000/svg" width="1200" height="627" viewBox="0 0 1200 627" role="img" aria-labelledby="t11">
  <title id="t11">Post 11 — £1,340 of invisible FBA fees</title>
  <rect width="1200" height="627" fill="#f3f0ea"/>
  <rect x="0.5" y="0.5" width="1199" height="626" fill="none" stroke="#0b0f1a" stroke-opacity="0.08"/>

  <g font-family="'Geist Mono', ui-monospace, monospace" font-size="14" fill="#0b0f1a" fill-opacity="0.55">
    <text x="60" y="60">11 / 24 — one month · FBA reconciliation</text>
  </g>
  <g font-family="'Instrument Serif', Georgia, serif" fill="#0b0f1a">
    <text x="60" y="118" font-size="38">Four fees. One invoice. Nobody tracked them.</text>
  </g>

  <!-- receipt -->
  <g>
    <!-- paper -->
    <rect x="280" y="160" width="460" height="430" fill="#faf7f0" stroke="#0b0f1a" stroke-width="1.5"/>
    <!-- torn bottom edge -->
    <path d="M280 590 L 300 580 L 320 590 L 340 580 L 360 590 L 380 580 L 400 590 L 420 580 L 440 590 L 460 580 L 480 590 L 500 580 L 520 590 L 540 580 L 560 590 L 580 580 L 600 590 L 620 580 L 640 590 L 660 580 L 680 590 L 700 580 L 720 590 L 740 580" fill="none" stroke="#0b0f1a" stroke-width="1.5"/>
    <!-- store name -->
    <text x="510" y="200" text-anchor="middle" font-family="'Instrument Serif', Georgia, serif" font-size="24" fill="#0b0f1a">FBA · statement extract</text>
    <text x="510" y="224" text-anchor="middle" font-family="'Geist Mono', ui-monospace, monospace" font-size="12" fill="#0b0f1a" fill-opacity="0.55">2026-02 · seller US</text>
    <!-- divider -->
    <line x1="310" y1="250" x2="710" y2="250" stroke="#0b0f1a" stroke-opacity="0.25" stroke-dasharray="2 4"/>

    <!-- line items -->
    <g font-family="'Geist Mono', ui-monospace, monospace" font-size="15" fill="#0b0f1a">
      <text x="310" y="295">Removal fees</text>
      <text x="710" y="295" text-anchor="end">$340.00</text>
      <text x="310" y="330">Long-term storage</text>
      <text x="710" y="330" text-anchor="end">$210.00</text>
      <text x="310" y="365">Aged inventory surcharge</text>
      <text x="710" y="365" text-anchor="end">$180.00</text>
      <text x="310" y="400">Returns processing · 23 units</text>
      <text x="710" y="400" text-anchor="end">$610.00</text>
    </g>

    <line x1="310" y1="430" x2="710" y2="430" stroke="#0b0f1a" stroke-width="1"/>

    <g font-family="'Instrument Serif', Georgia, serif" fill="#0b0f1a">
      <text x="310" y="475" font-size="22">Total</text>
      <text x="710" y="475" text-anchor="end" font-size="34">$1,340.00</text>
    </g>
    <text x="310" y="502" font-family="'Geist Mono', ui-monospace, monospace" font-size="11" fill="#0b0f1a" fill-opacity="0.5">annualised ≈ $16,080 · 0.9% of $1.8M</text>
  </g>

  <!-- invisible rubber stamp -->
  <g transform="translate(770, 310) rotate(-12)">
    <rect x="-140" y="-45" width="280" height="90" fill="none" stroke="#7d2a1a" stroke-width="3" rx="6"/>
    <rect x="-135" y="-40" width="270" height="80" fill="none" stroke="#7d2a1a" stroke-width="1" rx="4"/>
    <text x="0" y="14" text-anchor="middle" font-family="'Instrument Serif', Georgia, serif" font-size="52" fill="#7d2a1a" font-style="italic" letter-spacing="2">INVISIBLE</text>
  </g>

  <g font-family="'Geist Mono', ui-monospace, monospace" font-size="12" fill="#0b0f1a" fill-opacity="0.45">
    <text x="60" y="610">ingest payouts at line-item grain · attribute every fee to the SKU</text>
    <text x="1140" y="610" text-anchor="end">[brand]</text>
  </g>
</svg>
