<svg xmlns="http://www.w3.org/2000/svg" width="1200" height="627" viewBox="0 0 1200 627" role="img" aria-labelledby="t10">
  <title id="t10">Post 10 — same SKU, three channels, three net contributions</title>
  <rect width="1200" height="627" fill="#f3f0ea"/>
  <rect x="0.5" y="0.5" width="1199" height="626" fill="none" stroke="#0b0f1a" stroke-opacity="0.08"/>

  <g font-family="'Geist Mono', ui-monospace, monospace" font-size="14" fill="#0b0f1a" fill-opacity="0.55">
    <text x="60" y="60">10 / 24 — same SKU · $48 · three nets</text>
  </g>
  <g font-family="'Instrument Serif', Georgia, serif" fill="#0b0f1a">
    <text x="60" y="118" font-size="38">Flat price. Three different businesses.</text>
  </g>

  <!-- table frame -->
  <g stroke="#0b0f1a" stroke-width="1.5" fill="none">
    <rect x="60" y="170" width="1080" height="340" rx="10"/>
  </g>

  <!-- header -->
  <rect x="60" y="170" width="1080" height="50" fill="#0b0f1a" fill-opacity="0.04"/>
  <g font-family="'Geist Mono', ui-monospace, monospace" font-size="13" fill="#0b0f1a" fill-opacity="0.6">
    <text x="90" y="202">Channel</text>
    <text x="330" y="202">List price</text>
    <text x="540" y="202">Fee</text>
    <text x="740" y="202">Net</text>
    <text x="940" y="202">Contribution (COGS $24)</text>
  </g>

  <!-- column dividers -->
  <g stroke="#0b0f1a" stroke-opacity="0.08" stroke-width="1">
    <line x1="310" y1="170" x2="310" y2="510"/>
    <line x1="520" y1="170" x2="520" y2="510"/>
    <line x1="720" y1="170" x2="720" y2="510"/>
    <line x1="920" y1="170" x2="920" y2="510"/>
  </g>

  <!-- row 1 Shopify (green band) -->
  <rect x="60" y="220" width="1080" height="90" fill="#0e7c5a" fill-opacity="0.06"/>
  <g font-family="'Instrument Serif', Georgia, serif" font-size="32" fill="#0b0f1a">
    <text x="90" y="275">Shopify</text>
    <text x="330" y="275">$48.00</text>
    <text x="540" y="275" fill-opacity="0.75">−$2.78</text>
    <text x="740" y="275">$45.22</text>
    <text x="940" y="275" fill="#0e7c5a">$21.22</text>
  </g>
  <!-- green dot -->
  <circle cx="1120" cy="265" r="6" fill="#0e7c5a"/>

  <!-- row 2 Amazon (red band) -->
  <rect x="60" y="310" width="1080" height="90" fill="#7d2a1a" fill-opacity="0.06"/>
  <g font-family="'Instrument Serif', Georgia, serif" font-size="32" fill="#0b0f1a">
    <text x="90" y="365">Amazon</text>
    <text x="330" y="365">$48.00</text>
    <text x="540" y="365" fill-opacity="0.75">−$10.80</text>
    <text x="740" y="365">$37.20</text>
    <text x="940" y="365" fill="#7d2a1a">$13.20</text>
  </g>
  <circle cx="1120" cy="355" r="6" fill="#7d2a1a"/>

  <!-- row 3 eBay (amber band) -->
  <rect x="60" y="400" width="1080" height="90" fill="#a07a20" fill-opacity="0.08"/>
  <g font-family="'Instrument Serif', Georgia, serif" font-size="32" fill="#0b0f1a">
    <text x="90" y="455">eBay</text>
    <text x="330" y="455">$48.00</text>
    <text x="540" y="455" fill-opacity="0.75">−$6.49</text>
    <text x="740" y="455">$41.51</text>
    <text x="940" y="455" fill="#a07a20">$17.51</text>
  </g>
  <circle cx="1120" cy="445" r="6" fill="#a07a20"/>

  <g font-family="'Geist Mono', ui-monospace, monospace" font-size="12" fill="#0b0f1a" fill-opacity="0.45">
    <text x="60" y="555">38% less contribution on Amazon · nobody in the business knows</text>
    <text x="1140" y="555" text-anchor="end">[brand]</text>
  </g>
  <g font-family="'Geist Mono', ui-monospace, monospace" font-size="12" fill="#0b0f1a" fill-opacity="0.45">
    <text x="60" y="595">fix: per-channel price floors · target net-margin, back out list price</text>
  </g>
</svg>
