<svg xmlns="http://www.w3.org/2000/svg" width="1200" height="627" viewBox="0 0 1200 627" role="img" aria-labelledby="t05">
  <title id="t05">Post 05 — five Amazon mistakes, five fixes</title>
  <rect width="1200" height="627" fill="#f3f0ea"/>
  <rect x="0.5" y="0.5" width="1199" height="626" fill="none" stroke="#0b0f1a" stroke-opacity="0.08"/>

  <g font-family="'Geist Mono', ui-monospace, monospace" font-size="14" fill="#0b0f1a" fill-opacity="0.55">
    <text x="60" y="60">05 / 24 — five Amazon mistakes</text>
  </g>
  <g font-family="'Instrument Serif', Georgia, serif" fill="#0b0f1a">
    <text x="60" y="118" font-size="38">Strike · fix · move on.</text>
  </g>

  <!-- helper lists -->
  <g font-family="'Instrument Serif', Georgia, serif" font-size="22" fill="#0b0f1a">
    <!-- row helper group -->
    <g>
      <!-- 1 -->
      <text x="90" y="205" font-family="'Geist Mono', ui-monospace, monospace" font-size="13" fill-opacity="0.45">01</text>
      <text x="140" y="205">Same title on Amazon as on Shopify</text>
      <line x1="140" y1="199" x2="606" y2="199" stroke="#7d2a1a" stroke-width="1.5"/>
      <text x="640" y="205" fill="#0e7c5a">→ keyword-match titles per channel</text>
    </g>
    <g>
      <text x="90" y="270" font-family="'Geist Mono', ui-monospace, monospace" font-size="13" fill-opacity="0.45">02</text>
      <text x="140" y="270">Shipping new ASINs without a UPC / EAN</text>
      <line x1="140" y1="264" x2="636" y2="264" stroke="#7d2a1a" stroke-width="1.5"/>
      <text x="670" y="270" fill="#0e7c5a">→ GTIN caught at ingest</text>
    </g>
    <g>
      <text x="90" y="335" font-family="'Geist Mono', ui-monospace, monospace" font-size="13" fill-opacity="0.45">03</text>
      <text x="140" y="335">Flat price across Shopify, Amazon, eBay</text>
      <line x1="140" y1="329" x2="636" y2="329" stroke="#7d2a1a" stroke-width="1.5"/>
      <text x="670" y="335" fill="#0e7c5a">→ per-channel price floors</text>
    </g>
    <g>
      <text x="90" y="400" font-family="'Geist Mono', ui-monospace, monospace" font-size="13" fill-opacity="0.45">04</text>
      <text x="140" y="400">Not reconciling FBA removal fees</text>
      <line x1="140" y1="394" x2="580" y2="394" stroke="#7d2a1a" stroke-width="1.5"/>
      <text x="610" y="400" fill="#0e7c5a">→ line-item fee attribution</text>
    </g>
    <g>
      <text x="90" y="465" font-family="'Geist Mono', ui-monospace, monospace" font-size="13" fill-opacity="0.45">05</text>
      <text x="140" y="465">Treating the feed as one-time setup</text>
      <line x1="140" y1="459" x2="596" y2="459" stroke="#7d2a1a" stroke-width="1.5"/>
      <text x="630" y="465" fill="#0e7c5a">→ weekly schema monitoring</text>
    </g>
  </g>

  <!-- green ticks next to each fix -->
  <g stroke="#0e7c5a" stroke-width="2" fill="none" stroke-linecap="round" stroke-linejoin="round">
    <path d="M614 198 L 622 206 L 634 190"/>
    <path d="M644 263 L 652 271 L 664 255"/>
    <path d="M644 328 L 652 336 L 664 320"/>
    <path d="M584 393 L 592 401 L 604 385"/>
    <path d="M604 458 L 612 466 L 624 450"/>
  </g>

  <g font-family="'Geist Mono', ui-monospace, monospace" font-size="12" fill="#0b0f1a" fill-opacity="0.45">
    <text x="60" y="585">none of this is glamorous · all of it is margin</text>
    <text x="1140" y="585" text-anchor="end">[brand]</text>
  </g>
</svg>
