<svg xmlns="http://www.w3.org/2000/svg" width="1200" height="627" viewBox="0 0 1200 627" role="img" aria-labelledby="t22">
  <title id="t22">Post 22 — Q1 2026 calendar of schema changes, TTS Beauty v3 in February</title>
  <rect width="1200" height="627" fill="#f3f0ea"/>
  <rect x="0.5" y="0.5" width="1199" height="626" fill="none" stroke="#0b0f1a" stroke-opacity="0.08"/>

  <g font-family="'Geist Mono', ui-monospace, monospace" font-size="14" fill="#0b0f1a" fill-opacity="0.55">
    <text x="60" y="60">22 / 24 — Q1 2026 · schema changes</text>
  </g>
  <g font-family="'Instrument Serif', Georgia, serif" fill="#0b0f1a">
    <text x="60" y="118" font-size="38">Who updates the validator when this ships?</text>
  </g>

  <!-- 3 month calendars side by side -->
  <!-- each month: width 340, gap 30; start x = 65. y = 155 -->
  <!-- cell size 48 wide, 42 tall. 7 columns = 336 -->

  <!-- helper draw: January -->
  <g>
    <text x="65" y="180" font-family="'Geist Mono', ui-monospace, monospace" font-size="13" fill="#0b0f1a" fill-opacity="0.55">January 2026</text>
    <!-- header row -->
    <g font-family="'Geist Mono', ui-monospace, monospace" font-size="10" fill="#0b0f1a" fill-opacity="0.45">
      <text x="89" y="207" text-anchor="middle">M</text>
      <text x="137" y="207" text-anchor="middle">T</text>
      <text x="185" y="207" text-anchor="middle">W</text>
      <text x="233" y="207" text-anchor="middle">T</text>
      <text x="281" y="207" text-anchor="middle">F</text>
      <text x="329" y="207" text-anchor="middle">S</text>
      <text x="377" y="207" text-anchor="middle">S</text>
    </g>
    <!-- grid -->
    <g stroke="#0b0f1a" stroke-width="1" stroke-opacity="0.15" fill="none">
      <rect x="65" y="215" width="336" height="252"/>
      <line x1="65" y1="257" x2="401" y2="257"/>
      <line x1="65" y1="299" x2="401" y2="299"/>
      <line x1="65" y1="341" x2="401" y2="341"/>
      <line x1="65" y1="383" x2="401" y2="383"/>
      <line x1="65" y1="425" x2="401" y2="425"/>
      <line x1="113" y1="215" x2="113" y2="467"/>
      <line x1="161" y1="215" x2="161" y2="467"/>
      <line x1="209" y1="215" x2="209" y2="467"/>
      <line x1="257" y1="215" x2="257" y2="467"/>
      <line x1="305" y1="215" x2="305" y2="467"/>
      <line x1="353" y1="215" x2="353" y2="467"/>
    </g>
    <!-- marker: eBay item specifics — Jan 14 (row 3 col 3 = Wed) -->
    <circle cx="185" cy="320" r="5" fill="#0b0f1a"/>
    <text x="197" y="324" font-family="'Geist Mono', ui-monospace, monospace" font-size="9" fill="#0b0f1a" fill-opacity="0.65">eBay item-spec</text>
    <!-- marker: Amazon variation theme — Jan 27 -->
    <circle cx="137" cy="404" r="5" fill="#0b0f1a"/>
    <text x="147" y="408" font-family="'Geist Mono', ui-monospace, monospace" font-size="9" fill="#0b0f1a" fill-opacity="0.65">Amazon v.theme</text>
  </g>

  <!-- February — highlighted -->
  <g>
    <text x="435" y="180" font-family="'Geist Mono', ui-monospace, monospace" font-size="13" fill="#1d5fdb">February 2026</text>
    <g font-family="'Geist Mono', ui-monospace, monospace" font-size="10" fill="#0b0f1a" fill-opacity="0.45">
      <text x="459" y="207" text-anchor="middle">M</text>
      <text x="507" y="207" text-anchor="middle">T</text>
      <text x="555" y="207" text-anchor="middle">W</text>
      <text x="603" y="207" text-anchor="middle">T</text>
      <text x="651" y="207" text-anchor="middle">F</text>
      <text x="699" y="207" text-anchor="middle">S</text>
      <text x="747" y="207" text-anchor="middle">S</text>
    </g>
    <g stroke="#0b0f1a" stroke-width="1" stroke-opacity="0.15" fill="none">
      <rect x="435" y="215" width="336" height="252"/>
      <line x1="435" y1="257" x2="771" y2="257"/>
      <line x1="435" y1="299" x2="771" y2="299"/>
      <line x1="435" y1="341" x2="771" y2="341"/>
      <line x1="435" y1="383" x2="771" y2="383"/>
      <line x1="435" y1="425" x2="771" y2="425"/>
      <line x1="483" y1="215" x2="483" y2="467"/>
      <line x1="531" y1="215" x2="531" y2="467"/>
      <line x1="579" y1="215" x2="579" y2="467"/>
      <line x1="627" y1="215" x2="627" y2="467"/>
      <line x1="675" y1="215" x2="675" y2="467"/>
      <line x1="723" y1="215" x2="723" y2="467"/>
    </g>

    <!-- bold highlight around Feb 11 area (Wed of week 2) -->
    <rect x="547" y="309" width="48" height="42" fill="#1d5fdb" fill-opacity="0.12" stroke="#1d5fdb" stroke-width="2.5"/>
    <text x="571" y="335" text-anchor="middle" font-family="'Geist Mono', ui-monospace, monospace" font-size="13" fill="#1d5fdb">11</text>

    <!-- TTS Beauty v3 label -->
    <text x="603" y="330" font-family="'Instrument Serif', Georgia, serif" font-size="16" fill="#1d5fdb" font-style="italic">TTS Beauty v3</text>
    <text x="603" y="348" font-family="'Geist Mono', ui-monospace, monospace" font-size="10" fill="#1d5fdb" fill-opacity="0.7">ingredients · ratio · claims</text>

    <!-- other markers -->
    <circle cx="459" cy="278" r="5" fill="#0b0f1a"/>
    <circle cx="699" cy="362" r="5" fill="#0b0f1a"/>
    <text x="467" y="282" font-family="'Geist Mono', ui-monospace, monospace" font-size="9" fill="#0b0f1a" fill-opacity="0.65">Etsy tags</text>
  </g>

  <!-- March -->
  <g>
    <text x="805" y="180" font-family="'Geist Mono', ui-monospace, monospace" font-size="13" fill="#0b0f1a" fill-opacity="0.55">March 2026</text>
    <g font-family="'Geist Mono', ui-monospace, monospace" font-size="10" fill="#0b0f1a" fill-opacity="0.45">
      <text x="829" y="207" text-anchor="middle">M</text>
      <text x="877" y="207" text-anchor="middle">T</text>
      <text x="925" y="207" text-anchor="middle">W</text>
      <text x="973" y="207" text-anchor="middle">T</text>
      <text x="1021" y="207" text-anchor="middle">F</text>
      <text x="1069" y="207" text-anchor="middle">S</text>
      <text x="1117" y="207" text-anchor="middle">S</text>
    </g>
    <g stroke="#0b0f1a" stroke-width="1" stroke-opacity="0.15" fill="none">
      <rect x="805" y="215" width="336" height="252"/>
      <line x1="805" y1="257" x2="1141" y2="257"/>
      <line x1="805" y1="299" x2="1141" y2="299"/>
      <line x1="805" y1="341" x2="1141" y2="341"/>
      <line x1="805" y1="383" x2="1141" y2="383"/>
      <line x1="805" y1="425" x2="1141" y2="425"/>
      <line x1="853" y1="215" x2="853" y2="467"/>
      <line x1="901" y1="215" x2="901" y2="467"/>
      <line x1="949" y1="215" x2="949" y2="467"/>
      <line x1="997" y1="215" x2="997" y2="467"/>
      <line x1="1045" y1="215" x2="1045" y2="467"/>
      <line x1="1093" y1="215" x2="1093" y2="467"/>
    </g>
    <circle cx="877" cy="278" r="5" fill="#0b0f1a"/>
    <text x="885" y="282" font-family="'Geist Mono', ui-monospace, monospace" font-size="9" fill="#0b0f1a" fill-opacity="0.65">Amazon banned</text>
    <circle cx="1021" cy="362" r="5" fill="#0b0f1a"/>
    <text x="1030" y="366" font-family="'Geist Mono', ui-monospace, monospace" font-size="9" fill="#0b0f1a" fill-opacity="0.65">TTS images</text>
    <circle cx="949" cy="446" r="5" fill="#0b0f1a"/>
    <text x="957" y="450" font-family="'Geist Mono', ui-monospace, monospace" font-size="9" fill="#0b0f1a" fill-opacity="0.65">eBay cond-ID</text>
  </g>

  <!-- Legend -->
  <g font-family="'Geist Mono', ui-monospace, monospace" font-size="12" fill="#0b0f1a">
    <circle cx="80" cy="505" r="5" fill="#0b0f1a"/>
    <text x="94" y="509">schema change</text>
    <rect x="230" y="498" width="18" height="14" fill="none" stroke="#1d5fdb" stroke-width="2"/>
    <text x="256" y="509" fill="#1d5fdb">the one that breaks half the market</text>
  </g>

  <g font-family="'Geist Mono', ui-monospace, monospace" font-size="12" fill="#0b0f1a" fill-opacity="0.45">
    <text x="60" y="595">ask who updates the validator · and how quickly</text>
    <text x="1140" y="595" text-anchor="end">Palvento</text>
  </g>
</svg>
