<svg xmlns="http://www.w3.org/2000/svg" width="1200" height="627" viewBox="0 0 1200 627" role="img" aria-labelledby="t24">
  <title id="t24">Post 24 — the spreadsheet is the competitor</title>
  <rect width="1200" height="627" fill="#f3f0ea"/>
  <rect x="0.5" y="0.5" width="1199" height="626" fill="none" stroke="#0b0f1a" stroke-opacity="0.08"/>

  <g font-family="'Geist Mono', ui-monospace, monospace" font-size="14" fill="#0b0f1a" fill-opacity="0.55">
    <text x="60" y="60">24 / 24 — the spreadsheet is the competitor</text>
  </g>

  <!-- LEFT side: chaotic spreadsheet -->
  <g>
    <rect x="60" y="110" width="510" height="440" rx="6" fill="#ffffff" stroke="#0b0f1a" stroke-width="1.5"/>
    <!-- header row -->
    <rect x="60" y="110" width="510" height="32" fill="#0b0f1a" fill-opacity="0.05"/>
    <g font-family="'Geist Mono', ui-monospace, monospace" font-size="11" fill="#0b0f1a" fill-opacity="0.55">
      <text x="78" y="130">SKU</text>
      <text x="190" y="130">Amazon</text>
      <text x="290" y="130">eBay</text>
      <text x="380" y="130">TikTok</text>
      <text x="470" y="130">Etsy</text>
    </g>

    <!-- column separators -->
    <g stroke="#0b0f1a" stroke-opacity="0.1" stroke-width="1">
      <line x1="170" y1="110" x2="170" y2="550"/>
      <line x1="270" y1="110" x2="270" y2="550"/>
      <line x1="360" y1="110" x2="360" y2="550"/>
      <line x1="450" y1="110" x2="450" y2="550"/>
    </g>
    <!-- row separators -->
    <g stroke="#0b0f1a" stroke-opacity="0.06" stroke-width="1">
      <line x1="60" y1="170" x2="570" y2="170"/>
      <line x1="60" y1="200" x2="570" y2="200"/>
      <line x1="60" y1="230" x2="570" y2="230"/>
      <line x1="60" y1="260" x2="570" y2="260"/>
      <line x1="60" y1="290" x2="570" y2="290"/>
      <line x1="60" y1="320" x2="570" y2="320"/>
      <line x1="60" y1="350" x2="570" y2="350"/>
      <line x1="60" y1="380" x2="570" y2="380"/>
      <line x1="60" y1="410" x2="570" y2="410"/>
      <line x1="60" y1="440" x2="570" y2="440"/>
      <line x1="60" y1="470" x2="570" y2="470"/>
      <line x1="60" y1="500" x2="570" y2="500"/>
      <line x1="60" y1="530" x2="570" y2="530"/>
    </g>
    <!-- cells: red flagged cells -->
    <rect x="170" y="170" width="100" height="30" fill="#7d2a1a" fill-opacity="0.22"/>
    <rect x="360" y="200" width="90" height="30" fill="#7d2a1a" fill-opacity="0.22"/>
    <rect x="270" y="260" width="90" height="30" fill="#7d2a1a" fill-opacity="0.22"/>
    <rect x="450" y="320" width="120" height="30" fill="#7d2a1a" fill-opacity="0.22"/>
    <rect x="170" y="380" width="100" height="30" fill="#7d2a1a" fill-opacity="0.22"/>
    <rect x="360" y="410" width="90" height="30" fill="#7d2a1a" fill-opacity="0.22"/>
    <rect x="450" y="470" width="120" height="30" fill="#7d2a1a" fill-opacity="0.22"/>

    <!-- sample text -->
    <g font-family="'Geist Mono', ui-monospace, monospace" font-size="11" fill="#0b0f1a">
      <text x="78" y="190">PB-L-CHR</text>
      <text x="190" y="190" fill="#7d2a1a">#N/A</text>
      <text x="290" y="190">£64</text>
      <text x="380" y="190">—</text>
      <text x="470" y="190">£58</text>
      <text x="78" y="220">CNDL-03</text>
      <text x="190" y="220">£18</text>
      <text x="290" y="220">£18</text>
      <text x="380" y="220" fill="#7d2a1a">#REF!</text>
      <text x="470" y="220">—</text>
      <text x="78" y="250">STATION-K1</text>
      <text x="190" y="250">£22</text>
      <text x="290" y="250">£24</text>
      <text x="380" y="250">£22</text>
      <text x="470" y="250">£26</text>
      <text x="78" y="280">PB-M-NAT</text>
      <text x="190" y="280">£54</text>
      <text x="290" y="280" fill="#7d2a1a">stale</text>
      <text x="380" y="280">—</text>
      <text x="470" y="280">£52</text>
      <text x="78" y="310">KITCH-WB</text>
      <text x="190" y="310">£89</text>
      <text x="290" y="310">£92</text>
      <text x="380" y="310">—</text>
      <text x="470" y="310">£95</text>
      <text x="78" y="340">SKN-SERUM</text>
      <text x="190" y="340">£34</text>
      <text x="290" y="340">£36</text>
      <text x="380" y="340">£34</text>
      <text x="470" y="340" fill="#7d2a1a">banned</text>
      <text x="78" y="370">PB-S-NV</text>
      <text x="190" y="370">£44</text>
      <text x="290" y="370">£46</text>
      <text x="380" y="370">£44</text>
      <text x="470" y="370">£46</text>
      <text x="78" y="400">CNDL-TV-9</text>
      <text x="190" y="400" fill="#7d2a1a">GTIN?</text>
      <text x="290" y="400">£24</text>
      <text x="380" y="400">£24</text>
      <text x="470" y="400">—</text>
      <text x="78" y="430">STATION-A5</text>
      <text x="190" y="430">£14</text>
      <text x="290" y="430">£14</text>
      <text x="380" y="430" fill="#7d2a1a">img</text>
      <text x="470" y="430">£16</text>
      <text x="78" y="460">KITCH-SPN</text>
      <text x="190" y="460">£29</text>
      <text x="290" y="460">£31</text>
      <text x="380" y="460">—</text>
      <text x="470" y="460">£32</text>
      <text x="78" y="490">SKN-LIP-4</text>
      <text x="190" y="490">£9</text>
      <text x="290" y="490">£10</text>
      <text x="380" y="490">£9</text>
      <text x="470" y="490" fill="#7d2a1a">cat?</text>
    </g>

    <!-- Sheet tab -->
    <rect x="80" y="555" width="120" height="22" fill="#f3f0ea" stroke="#0b0f1a" stroke-width="1"/>
    <text x="88" y="570" font-family="'Geist Mono', ui-monospace, monospace" font-size="11" fill="#0b0f1a" fill-opacity="0.7">master_v14_FINAL</text>
  </g>

  <!-- Middle arrow -->
  <g stroke="#1d5fdb" stroke-width="2.5" fill="none" stroke-linecap="round" stroke-linejoin="round">
    <path d="M590 330 L 640 330"/>
    <path d="M628 322 L 640 330 L 628 338"/>
  </g>

  <!-- RIGHT side: clean interface -->
  <g>
    <rect x="660" y="110" width="480" height="440" rx="10" fill="#ffffff" stroke="#0b0f1a" stroke-width="1.5"/>
    <!-- top bar -->
    <rect x="660" y="110" width="480" height="46" fill="#0b0f1a" fill-opacity="0.04"/>
    <text x="680" y="138" font-family="'Geist Mono', ui-monospace, monospace" font-size="12" fill="#0b0f1a" fill-opacity="0.6">[brand] · pre-flight</text>
    <circle cx="1100" cy="133" r="5" fill="#0e7c5a"/>

    <!-- central all checks passed badge -->
    <g transform="translate(900, 310)">
      <circle r="70" fill="none" stroke="#0e7c5a" stroke-width="2"/>
      <circle r="58" fill="#0e7c5a" fill-opacity="0.08"/>
      <path d="M-22 2 L -6 20 L 26 -16" fill="none" stroke="#0e7c5a" stroke-width="3.5" stroke-linecap="round" stroke-linejoin="round"/>
    </g>
    <text x="900" y="420" text-anchor="middle" font-family="'Instrument Serif', Georgia, serif" font-size="26" fill="#0b0f1a">all checks passed</text>
    <text x="900" y="446" text-anchor="middle" font-family="'Geist Mono', ui-monospace, monospace" font-size="12" fill="#0b0f1a" fill-opacity="0.6">1,612 SKUs · 4 channels · 0 errors</text>

    <!-- little stat chips -->
    <g>
      <rect x="700" y="480" width="130" height="40" rx="2" fill="#f3f0ea" stroke="#0b0f1a" stroke-opacity="0.1" stroke-width="1"/>
      <text x="714" y="498" font-family="'Geist Mono', ui-monospace, monospace" font-size="10" fill="#0b0f1a" fill-opacity="0.55">GTIN</text>
      <text x="714" y="514" font-family="'Instrument Serif', Georgia, serif" font-size="18" fill="#0b0f1a">1,612 / 1,612</text>

      <rect x="840" y="480" width="130" height="40" rx="2" fill="#f3f0ea" stroke="#0b0f1a" stroke-opacity="0.1" stroke-width="1"/>
      <text x="854" y="498" font-family="'Geist Mono', ui-monospace, monospace" font-size="10" fill="#0b0f1a" fill-opacity="0.55">images</text>
      <text x="854" y="514" font-family="'Instrument Serif', Georgia, serif" font-size="18" fill="#0b0f1a">all pass</text>

      <rect x="980" y="480" width="130" height="40" rx="2" fill="#f3f0ea" stroke="#0b0f1a" stroke-opacity="0.1" stroke-width="1"/>
      <text x="994" y="498" font-family="'Geist Mono', ui-monospace, monospace" font-size="10" fill="#0b0f1a" fill-opacity="0.55">policies</text>
      <text x="994" y="514" font-family="'Instrument Serif', Georgia, serif" font-size="18" fill="#0b0f1a">auto</text>
    </g>

    <text x="900" y="200" text-anchor="middle" font-family="'Instrument Serif', Georgia, serif" font-size="18" font-style="italic" fill="#0b0f1a" fill-opacity="0.6">before push</text>
  </g>

  <g font-family="'Geist Mono', ui-monospace, monospace" font-size="12" fill="#0b0f1a" fill-opacity="0.45">
    <text x="60" y="605">every feature we ship is tested against the spreadsheet first</text>
    <text x="1140" y="605" text-anchor="end">ship in 7 days · [brand]</text>
  </g>
</svg>
