<svg xmlns="http://www.w3.org/2000/svg" viewBox="0 0 1600 1200" width="1600" height="1200">
  <rect width="1600" height="1200" fill="#f8f4ec"/>
  
  <g>
    <text x="96" y="112" font-family="ui-monospace, SFMono-Regular, Menlo, monospace" font-size="22" fill="#e8863f" letter-spacing="2.4" font-weight="600">§ 05 · PRICING</text>
    <line x1="96" y1="134" x2="176" y2="134" stroke="#e8863f" stroke-width="2"/>
    <g transform="translate(1450 80)">
      <path d="M2 42 L24 6 L46 42 L36 42 L24 22 L12 42 Z" fill="#0b0f1a"/>
      <rect x="18" y="34" width="12" height="4" rx="0.6" fill="#e8863f"/>
    </g>
  </g>
  <g>
    <text x="96" y="240" font-family="Geist, -apple-system, BlinkMacSystemFont, system-ui, sans-serif" font-size="72" font-weight="600" fill="#0b0f1a" letter-spacing="-2.4">Published pricing.</text>
    <text x="96" y="320" font-family="Geist, -apple-system, BlinkMacSystemFont, system-ui, sans-serif" font-size="72" font-weight="600" fill="#0b0f1a" letter-spacing="-2.4">Five currencies. <tspan fill="#e8863f">No % of GMV.</tspan></text>
    <text x="96" y="400" font-family="Geist, -apple-system, BlinkMacSystemFont, system-ui, sans-serif" font-size="24" fill="#5a6171" letter-spacing="-0.3">Flat monthly. No per-order fees above plan. No quote-form floor.</text>
    <text x="96" y="432" font-family="Geist, -apple-system, BlinkMacSystemFont, system-ui, sans-serif" font-size="24" fill="#5a6171" letter-spacing="-0.3">Toggle between USD, GBP, EUR, AUD, CAD — each priced to a clean number in that currency.</text>
  </g>

  <!-- Currency toggle mockup -->
  <g transform="translate(96 520)">
    <rect x="0" y="0" width="420" height="40" rx="8" fill="#ffffff" stroke="rgba(11,15,26,0.10)" stroke-width="1"/>
    
      <rect x="4" y="4" width="78" height="32" rx="6" fill="#e8863f"/>
      <text x="43" y="25" font-family="ui-monospace, SFMono-Regular, Menlo, monospace" font-size="14" font-weight="600" fill="#ffffff" text-anchor="middle" letter-spacing="0.6">USD</text>
      <rect x="86" y="4" width="78" height="32" rx="6" fill="transparent"/>
      <text x="125" y="25" font-family="ui-monospace, SFMono-Regular, Menlo, monospace" font-size="14" font-weight="600" fill="#5a6171" text-anchor="middle" letter-spacing="0.6">GBP</text>
      <rect x="168" y="4" width="78" height="32" rx="6" fill="transparent"/>
      <text x="207" y="25" font-family="ui-monospace, SFMono-Regular, Menlo, monospace" font-size="14" font-weight="600" fill="#5a6171" text-anchor="middle" letter-spacing="0.6">EUR</text>
      <rect x="250" y="4" width="78" height="32" rx="6" fill="transparent"/>
      <text x="289" y="25" font-family="ui-monospace, SFMono-Regular, Menlo, monospace" font-size="14" font-weight="600" fill="#5a6171" text-anchor="middle" letter-spacing="0.6">AUD</text>
      <rect x="332" y="4" width="78" height="32" rx="6" fill="transparent"/>
      <text x="371" y="25" font-family="ui-monospace, SFMono-Regular, Menlo, monospace" font-size="14" font-weight="600" fill="#5a6171" text-anchor="middle" letter-spacing="0.6">CAD</text>
  </g>

  <!-- Price cards -->
  
    <g>
      <rect x="96" y="580" width="340" height="420" rx="14"
        fill="#ffffff"
        stroke="rgba(11,15,26,0.10)"
        stroke-width="1"/>
      
      <g transform="translate(124 620)">
        <text x="0" y="18" font-family="ui-monospace, SFMono-Regular, Menlo, monospace" font-size="12" fill="#8b8e9d" letter-spacing="1.4">1 CHANNEL</text>
        <text x="0" y="60" font-family="Geist, -apple-system, BlinkMacSystemFont, system-ui, sans-serif" font-size="28" font-weight="600" fill="#0b0f1a" letter-spacing="-0.3">Starter</text>
        <g transform="translate(0 120)">
          <text x="0" y="0" font-family="Geist, -apple-system, BlinkMacSystemFont, system-ui, sans-serif" font-size="64" font-weight="600" fill="#0b0f1a" letter-spacing="-2.4">$149</text>
          <text x="0" y="24" font-family="ui-monospace, SFMono-Regular, Menlo, monospace" font-size="14" fill="#5a6171" letter-spacing="0.4">/ MONTH · FLAT</text>
        </g>
        <rect x="0" y="170" width="284" height="44" rx="8" fill="#fdfaf2"/>
        <text x="142" y="198" font-family="Geist, -apple-system, BlinkMacSystemFont, system-ui, sans-serif" font-size="14" font-weight="500" fill="#0b0f1a" text-anchor="middle" letter-spacing="-0.1">Start free trial →</text>
        <g transform="translate(0 240)">
          <text x="0" y="0" font-family="ui-monospace, SFMono-Regular, Menlo, monospace" font-size="11" fill="#8b8e9d" letter-spacing="1.2">INCLUDES</text>
          
          <g transform="translate(0 20)">
            <circle cx="6" cy="7" r="6" fill="#fdfaf2"/>
            <path d="M3 7 L5 9 L9 5" stroke="#5a6171" stroke-width="1.4" fill="none" stroke-linecap="round"/>
            <text x="20" y="11" font-family="Geist, -apple-system, BlinkMacSystemFont, system-ui, sans-serif" font-size="13" fill="#5a6171" letter-spacing="-0.1">All feed validation rules</text>
          </g>
          <g transform="translate(0 42)">
            <circle cx="6" cy="7" r="6" fill="#fdfaf2"/>
            <path d="M3 7 L5 9 L9 5" stroke="#5a6171" stroke-width="1.4" fill="none" stroke-linecap="round"/>
            <text x="20" y="11" font-family="Geist, -apple-system, BlinkMacSystemFont, system-ui, sans-serif" font-size="13" fill="#5a6171" letter-spacing="-0.1">14-day free trial</text>
          </g>
          <g transform="translate(0 64)">
            <circle cx="6" cy="7" r="6" fill="#fdfaf2"/>
            <path d="M3 7 L5 9 L9 5" stroke="#5a6171" stroke-width="1.4" fill="none" stroke-linecap="round"/>
            <text x="20" y="11" font-family="Geist, -apple-system, BlinkMacSystemFont, system-ui, sans-serif" font-size="13" fill="#5a6171" letter-spacing="-0.1">No card required</text>
          </g>
          <g transform="translate(0 86)">
            <circle cx="6" cy="7" r="6" fill="#fdfaf2"/>
            <path d="M3 7 L5 9 L9 5" stroke="#5a6171" stroke-width="1.4" fill="none" stroke-linecap="round"/>
            <text x="20" y="11" font-family="Geist, -apple-system, BlinkMacSystemFont, system-ui, sans-serif" font-size="13" fill="#5a6171" letter-spacing="-0.1">Cancel any time</text>
          </g>
        </g>
      </g>
    </g>
    <g>
      <rect x="452" y="580" width="340" height="420" rx="14"
        fill="rgba(232,134,63,0.12)"
        stroke="rgba(232,134,63,0.5)"
        stroke-width="1.5"/>
      
      <rect x="472" y="566" width="140" height="28" rx="14" fill="#ffffff" stroke="#e8863f" stroke-width="1"/>
      <text x="542" y="584" font-family="ui-monospace, SFMono-Regular, Menlo, monospace" font-size="11" fill="#e8863f" font-weight="600" text-anchor="middle" letter-spacing="1.2">MOST ADOPTED</text>
      
      <g transform="translate(480 620)">
        <text x="0" y="18" font-family="ui-monospace, SFMono-Regular, Menlo, monospace" font-size="12" fill="#8b8e9d" letter-spacing="1.4">5 CHANNELS · MOST ADOPTED</text>
        <text x="0" y="60" font-family="Geist, -apple-system, BlinkMacSystemFont, system-ui, sans-serif" font-size="28" font-weight="600" fill="#0b0f1a" letter-spacing="-0.3">Growth</text>
        <g transform="translate(0 120)">
          <text x="0" y="0" font-family="Geist, -apple-system, BlinkMacSystemFont, system-ui, sans-serif" font-size="64" font-weight="600" fill="#0b0f1a" letter-spacing="-2.4">$349</text>
          <text x="0" y="24" font-family="ui-monospace, SFMono-Regular, Menlo, monospace" font-size="14" fill="#5a6171" letter-spacing="0.4">/ MONTH · FLAT</text>
        </g>
        <rect x="0" y="170" width="284" height="44" rx="8" fill="#e8863f"/>
        <text x="142" y="198" font-family="Geist, -apple-system, BlinkMacSystemFont, system-ui, sans-serif" font-size="14" font-weight="500" fill="#ffffff" text-anchor="middle" letter-spacing="-0.1">Start free trial →</text>
        <g transform="translate(0 240)">
          <text x="0" y="0" font-family="ui-monospace, SFMono-Regular, Menlo, monospace" font-size="11" fill="#8b8e9d" letter-spacing="1.2">INCLUDES</text>
          
          <g transform="translate(0 20)">
            <circle cx="6" cy="7" r="6" fill="rgba(232,134,63,0.12)"/>
            <path d="M3 7 L5 9 L9 5" stroke="#e8863f" stroke-width="1.4" fill="none" stroke-linecap="round"/>
            <text x="20" y="11" font-family="Geist, -apple-system, BlinkMacSystemFont, system-ui, sans-serif" font-size="13" fill="#5a6171" letter-spacing="-0.1">All feed validation rules</text>
          </g>
          <g transform="translate(0 42)">
            <circle cx="6" cy="7" r="6" fill="rgba(232,134,63,0.12)"/>
            <path d="M3 7 L5 9 L9 5" stroke="#e8863f" stroke-width="1.4" fill="none" stroke-linecap="round"/>
            <text x="20" y="11" font-family="Geist, -apple-system, BlinkMacSystemFont, system-ui, sans-serif" font-size="13" fill="#5a6171" letter-spacing="-0.1">14-day free trial</text>
          </g>
          <g transform="translate(0 64)">
            <circle cx="6" cy="7" r="6" fill="rgba(232,134,63,0.12)"/>
            <path d="M3 7 L5 9 L9 5" stroke="#e8863f" stroke-width="1.4" fill="none" stroke-linecap="round"/>
            <text x="20" y="11" font-family="Geist, -apple-system, BlinkMacSystemFont, system-ui, sans-serif" font-size="13" fill="#5a6171" letter-spacing="-0.1">No card required</text>
          </g>
          <g transform="translate(0 86)">
            <circle cx="6" cy="7" r="6" fill="rgba(232,134,63,0.12)"/>
            <path d="M3 7 L5 9 L9 5" stroke="#e8863f" stroke-width="1.4" fill="none" stroke-linecap="round"/>
            <text x="20" y="11" font-family="Geist, -apple-system, BlinkMacSystemFont, system-ui, sans-serif" font-size="13" fill="#5a6171" letter-spacing="-0.1">Cancel any time</text>
          </g>
        </g>
      </g>
    </g>
    <g>
      <rect x="808" y="580" width="340" height="420" rx="14"
        fill="#ffffff"
        stroke="rgba(11,15,26,0.10)"
        stroke-width="1"/>
      
      <g transform="translate(836 620)">
        <text x="0" y="18" font-family="ui-monospace, SFMono-Regular, Menlo, monospace" font-size="12" fill="#8b8e9d" letter-spacing="1.4">UNLIMITED CHANNELS</text>
        <text x="0" y="60" font-family="Geist, -apple-system, BlinkMacSystemFont, system-ui, sans-serif" font-size="28" font-weight="600" fill="#0b0f1a" letter-spacing="-0.3">Scale</text>
        <g transform="translate(0 120)">
          <text x="0" y="0" font-family="Geist, -apple-system, BlinkMacSystemFont, system-ui, sans-serif" font-size="64" font-weight="600" fill="#0b0f1a" letter-spacing="-2.4">$799</text>
          <text x="0" y="24" font-family="ui-monospace, SFMono-Regular, Menlo, monospace" font-size="14" fill="#5a6171" letter-spacing="0.4">/ MONTH · FLAT</text>
        </g>
        <rect x="0" y="170" width="284" height="44" rx="8" fill="#fdfaf2"/>
        <text x="142" y="198" font-family="Geist, -apple-system, BlinkMacSystemFont, system-ui, sans-serif" font-size="14" font-weight="500" fill="#0b0f1a" text-anchor="middle" letter-spacing="-0.1">Start free trial →</text>
        <g transform="translate(0 240)">
          <text x="0" y="0" font-family="ui-monospace, SFMono-Regular, Menlo, monospace" font-size="11" fill="#8b8e9d" letter-spacing="1.2">INCLUDES</text>
          
          <g transform="translate(0 20)">
            <circle cx="6" cy="7" r="6" fill="#fdfaf2"/>
            <path d="M3 7 L5 9 L9 5" stroke="#5a6171" stroke-width="1.4" fill="none" stroke-linecap="round"/>
            <text x="20" y="11" font-family="Geist, -apple-system, BlinkMacSystemFont, system-ui, sans-serif" font-size="13" fill="#5a6171" letter-spacing="-0.1">All feed validation rules</text>
          </g>
          <g transform="translate(0 42)">
            <circle cx="6" cy="7" r="6" fill="#fdfaf2"/>
            <path d="M3 7 L5 9 L9 5" stroke="#5a6171" stroke-width="1.4" fill="none" stroke-linecap="round"/>
            <text x="20" y="11" font-family="Geist, -apple-system, BlinkMacSystemFont, system-ui, sans-serif" font-size="13" fill="#5a6171" letter-spacing="-0.1">14-day free trial</text>
          </g>
          <g transform="translate(0 64)">
            <circle cx="6" cy="7" r="6" fill="#fdfaf2"/>
            <path d="M3 7 L5 9 L9 5" stroke="#5a6171" stroke-width="1.4" fill="none" stroke-linecap="round"/>
            <text x="20" y="11" font-family="Geist, -apple-system, BlinkMacSystemFont, system-ui, sans-serif" font-size="13" fill="#5a6171" letter-spacing="-0.1">No card required</text>
          </g>
          <g transform="translate(0 86)">
            <circle cx="6" cy="7" r="6" fill="#fdfaf2"/>
            <path d="M3 7 L5 9 L9 5" stroke="#5a6171" stroke-width="1.4" fill="none" stroke-linecap="round"/>
            <text x="20" y="11" font-family="Geist, -apple-system, BlinkMacSystemFont, system-ui, sans-serif" font-size="13" fill="#5a6171" letter-spacing="-0.1">Cancel any time</text>
          </g>
        </g>
      </g>
    </g>
    <g>
      <rect x="1164" y="580" width="340" height="420" rx="14"
        fill="#ffffff"
        stroke="rgba(11,15,26,0.10)"
        stroke-width="1"/>
      
      <g transform="translate(1192 620)">
        <text x="0" y="18" font-family="ui-monospace, SFMono-Regular, Menlo, monospace" font-size="12" fill="#8b8e9d" letter-spacing="1.4">FROM · SSO · SLA</text>
        <text x="0" y="60" font-family="Geist, -apple-system, BlinkMacSystemFont, system-ui, sans-serif" font-size="28" font-weight="600" fill="#0b0f1a" letter-spacing="-0.3">Enterprise</text>
        <g transform="translate(0 120)">
          <text x="0" y="0" font-family="Geist, -apple-system, BlinkMacSystemFont, system-ui, sans-serif" font-size="64" font-weight="600" fill="#0b0f1a" letter-spacing="-2.4">$2000</text>
          <text x="0" y="24" font-family="ui-monospace, SFMono-Regular, Menlo, monospace" font-size="14" fill="#5a6171" letter-spacing="0.4">/ MONTH · FLAT</text>
        </g>
        <rect x="0" y="170" width="284" height="44" rx="8" fill="#fdfaf2"/>
        <text x="142" y="198" font-family="Geist, -apple-system, BlinkMacSystemFont, system-ui, sans-serif" font-size="14" font-weight="500" fill="#0b0f1a" text-anchor="middle" letter-spacing="-0.1">Talk to sales →</text>
        <g transform="translate(0 240)">
          <text x="0" y="0" font-family="ui-monospace, SFMono-Regular, Menlo, monospace" font-size="11" fill="#8b8e9d" letter-spacing="1.2">INCLUDES</text>
          
          <g transform="translate(0 20)">
            <circle cx="6" cy="7" r="6" fill="#fdfaf2"/>
            <path d="M3 7 L5 9 L9 5" stroke="#5a6171" stroke-width="1.4" fill="none" stroke-linecap="round"/>
            <text x="20" y="11" font-family="Geist, -apple-system, BlinkMacSystemFont, system-ui, sans-serif" font-size="13" fill="#5a6171" letter-spacing="-0.1">All feed validation rules</text>
          </g>
          <g transform="translate(0 42)">
            <circle cx="6" cy="7" r="6" fill="#fdfaf2"/>
            <path d="M3 7 L5 9 L9 5" stroke="#5a6171" stroke-width="1.4" fill="none" stroke-linecap="round"/>
            <text x="20" y="11" font-family="Geist, -apple-system, BlinkMacSystemFont, system-ui, sans-serif" font-size="13" fill="#5a6171" letter-spacing="-0.1">14-day free trial</text>
          </g>
          <g transform="translate(0 64)">
            <circle cx="6" cy="7" r="6" fill="#fdfaf2"/>
            <path d="M3 7 L5 9 L9 5" stroke="#5a6171" stroke-width="1.4" fill="none" stroke-linecap="round"/>
            <text x="20" y="11" font-family="Geist, -apple-system, BlinkMacSystemFont, system-ui, sans-serif" font-size="13" fill="#5a6171" letter-spacing="-0.1">No card required</text>
          </g>
          <g transform="translate(0 86)">
            <circle cx="6" cy="7" r="6" fill="#fdfaf2"/>
            <path d="M3 7 L5 9 L9 5" stroke="#5a6171" stroke-width="1.4" fill="none" stroke-linecap="round"/>
            <text x="20" y="11" font-family="Geist, -apple-system, BlinkMacSystemFont, system-ui, sans-serif" font-size="13" fill="#5a6171" letter-spacing="-0.1">Cancel any time</text>
          </g>
        </g>
      </g>
    </g>

  
  <g transform="translate(96 1120)">
    <line x1="0" y1="-18" x2="1408" y2="-18" stroke="rgba(11,15,26,0.10)" stroke-width="1"/>
    <g transform="translate(0 10)">
      <path d="M0 26 L14 2 L28 26 L22 26 L14 12 L6 26 Z" fill="#0b0f1a"/>
      <rect x="10.5" y="20.5" width="7" height="2.5" rx="0.4" fill="#e8863f"/>
      <text x="40" y="22" font-family="Geist, -apple-system, BlinkMacSystemFont, system-ui, sans-serif" font-size="24" font-weight="600" fill="#0b0f1a" letter-spacing="-0.3">palvento.com</text>
    </g>
    <text x="1408" y="32" font-family="ui-monospace, SFMono-Regular, Menlo, monospace" font-size="14" fill="#5a6171" text-anchor="end" letter-spacing="0.6">14-day free trial · No card required · Cancel any time · USD · GBP · EUR · AUD · CAD</text>
  </g>
</svg>