<svg xmlns="http://www.w3.org/2000/svg" viewBox="0 0 1600 1200" width="1600" height="1200">
  <rect width="1600" height="1200" fill="#f8f4ec"/>
  
  <g>
    <text x="96" y="112" font-family="ui-monospace, SFMono-Regular, Menlo, monospace" font-size="22" fill="#e8863f" letter-spacing="2.4" font-weight="600">§ 02 · PER-CHANNEL P&amp;L</text>
    <line x1="96" y1="134" x2="176" y2="134" stroke="#e8863f" stroke-width="2"/>
    <g transform="translate(1450 80)">
      <path d="M2 42 L24 6 L46 42 L36 42 L24 22 L12 42 Z" fill="#0b0f1a"/>
      <rect x="18" y="34" width="12" height="4" rx="0.6" fill="#e8863f"/>
    </g>
  </g>
  <g>
    <text x="96" y="240" font-family="Geist, -apple-system, BlinkMacSystemFont, system-ui, sans-serif" font-size="72" font-weight="600" fill="#0b0f1a" letter-spacing="-2.4">See which channel</text>
    <text x="96" y="320" font-family="Geist, -apple-system, BlinkMacSystemFont, system-ui, sans-serif" font-size="72" font-weight="600" fill="#0b0f1a" letter-spacing="-2.4">actually <tspan fill="#e8863f">made you money.</tspan></text>
    <text x="96" y="400" font-family="Geist, -apple-system, BlinkMacSystemFont, system-ui, sans-serif" font-size="24" fill="#5a6171" letter-spacing="-0.3">Line-item fee attribution reconciled into contribution margin per SKU per channel —</text>
    <text x="96" y="432" font-family="Geist, -apple-system, BlinkMacSystemFont, system-ui, sans-serif" font-size="24" fill="#5a6171" letter-spacing="-0.3">FBA removal, eBay insertion, TikTok Shop commission, all tagged against the orders they belong to.</text>
  </g>

  
  <g>
    <rect x="96" y="510" width="1408" height="50" fill="#fdfaf2" stroke="rgba(11,15,26,0.10)" stroke-width="1" rx="10 10 0 0"/>
    <g transform="translate(120 528)">
      <circle cx="0" cy="7" r="6" fill="#b32718" opacity="0.55"/>
      <circle cx="20" cy="7" r="6" fill="#b5651d" opacity="0.55"/>
      <circle cx="40" cy="7" r="6" fill="#0e7c5a" opacity="0.55"/>
    </g>
    <text x="800" y="542" font-family="ui-monospace, SFMono-Regular, Menlo, monospace" font-size="14" fill="#5a6171" text-anchor="middle" letter-spacing="0.4">palvento.com/dashboard · P&amp;L</text>
  </g>
  <rect x="96" y="560" width="1408" height="440" fill="#ffffff" stroke="rgba(11,15,26,0.10)" stroke-width="1"/>

  <!-- Panel header -->
  <g transform="translate(124 580)">
    <text x="0" y="16" font-family="ui-monospace, SFMono-Regular, Menlo, monospace" font-size="13" fill="#8b8e9d" letter-spacing="1.4">OCTOBER 2026 · 31 DAYS · 1,743 ORDERS</text>
    <text x="0" y="56" font-family="Geist, -apple-system, BlinkMacSystemFont, system-ui, sans-serif" font-size="32" font-weight="600" fill="#0b0f1a" letter-spacing="-0.6">$244,700 net · <tspan fill="#0e7c5a">93.9% margin</tspan></text>
  </g>
  <g transform="translate(1460 606)">
    
      <rect x="-312" y="-18" width="70" height="28" rx="6" fill="transparent" stroke="rgba(11,15,26,0.10)" stroke-width="1"/>
      <text x="-277" y="0" font-family="ui-monospace, SFMono-Regular, Menlo, monospace" font-size="12" fill="#5a6171" text-anchor="middle" letter-spacing="0.4" font-weight="500">Day</text>
      <rect x="-234" y="-18" width="70" height="28" rx="6" fill="transparent" stroke="rgba(11,15,26,0.10)" stroke-width="1"/>
      <text x="-199" y="0" font-family="ui-monospace, SFMono-Regular, Menlo, monospace" font-size="12" fill="#5a6171" text-anchor="middle" letter-spacing="0.4" font-weight="500">Week</text>
      <rect x="-156" y="-18" width="70" height="28" rx="6" fill="rgba(232,134,63,0.12)" stroke="rgba(232,134,63,0.4)" stroke-width="1"/>
      <text x="-121" y="0" font-family="ui-monospace, SFMono-Regular, Menlo, monospace" font-size="12" fill="#e8863f" text-anchor="middle" letter-spacing="0.4" font-weight="600">Month</text>
      <rect x="-78" y="-18" width="70" height="28" rx="6" fill="transparent" stroke="rgba(11,15,26,0.10)" stroke-width="1"/>
      <text x="-43" y="0" font-family="ui-monospace, SFMono-Regular, Menlo, monospace" font-size="12" fill="#5a6171" text-anchor="middle" letter-spacing="0.4" font-weight="500">YTD</text>
  </g>

  <!-- Table head -->
  <g transform="translate(124 690)">
    <text x="0" y="0" font-family="ui-monospace, SFMono-Regular, Menlo, monospace" font-size="11" fill="#8b8e9d" letter-spacing="1.4">CHANNEL</text>
    <text x="400" y="0" font-family="ui-monospace, SFMono-Regular, Menlo, monospace" font-size="11" fill="#8b8e9d" text-anchor="end" letter-spacing="1.4">REVENUE</text>
    <text x="560" y="0" font-family="ui-monospace, SFMono-Regular, Menlo, monospace" font-size="11" fill="#8b8e9d" text-anchor="end" letter-spacing="1.4">FEES</text>
    <text x="720" y="0" font-family="ui-monospace, SFMono-Regular, Menlo, monospace" font-size="11" fill="#8b8e9d" text-anchor="end" letter-spacing="1.4">NET</text>
    <text x="860" y="0" font-family="ui-monospace, SFMono-Regular, Menlo, monospace" font-size="11" fill="#8b8e9d" text-anchor="end" letter-spacing="1.4">MARGIN</text>
    <text x="980" y="0" font-family="ui-monospace, SFMono-Regular, Menlo, monospace" font-size="11" fill="#8b8e9d" text-anchor="end" letter-spacing="1.4">UNITS</text>
    <text x="1280" y="0" font-family="ui-monospace, SFMono-Regular, Menlo, monospace" font-size="11" fill="#8b8e9d" text-anchor="end" letter-spacing="1.4">30-DAY</text>
  </g>

  <!-- Rows -->
  
    <g>
      <line x1="124" y1="720" x2="1476" y2="720" stroke="rgba(11,15,26,0.10)" stroke-width="1"/>
      <g transform="translate(124 756)">
        <circle cx="10" cy="-4" r="5" fill="#e8863f"/>
        <text x="28" y="0" font-family="Geist, -apple-system, BlinkMacSystemFont, system-ui, sans-serif" font-size="20" font-weight="500" fill="#0b0f1a" letter-spacing="-0.2">Shopify</text>
        <text x="400" y="0" font-family="ui-monospace, SFMono-Regular, Menlo, monospace" font-size="18" fill="#0b0f1a" text-anchor="end" letter-spacing="0.2">$124,400</text>
        <text x="560" y="0" font-family="ui-monospace, SFMono-Regular, Menlo, monospace" font-size="18" fill="#5a6171" text-anchor="end" letter-spacing="0.2">$3,610</text>
        <text x="720" y="0" font-family="ui-monospace, SFMono-Regular, Menlo, monospace" font-size="19" fill="#0b0f1a" text-anchor="end" font-weight="600" letter-spacing="0.2">$120,790</text>
        <text x="860" y="0" font-family="ui-monospace, SFMono-Regular, Menlo, monospace" font-size="18" fill="#0e7c5a" text-anchor="end" letter-spacing="0.2">97.1%</text>
        <text x="980" y="0" font-family="ui-monospace, SFMono-Regular, Menlo, monospace" font-size="18" fill="#5a6171" text-anchor="end" letter-spacing="0.2">842</text>
        <g transform="translate(1160 -22)"><path d="M 0.0 28.0 L 12.0 24.3 L 24.0 22.5 L 36.0 23.1 L 48.0 20.1 L 60.0 15.8 L 72.0 12.2 L 84.0 9.7 L 96.0 6.1 L 108.0 3.7 L 120.0 0.0" fill="none" stroke="#0e7c5a" stroke-width="1.8" stroke-linecap="round" stroke-linejoin="round"/></g>
      </g>
    </g>
    <g>
      <line x1="124" y1="796" x2="1476" y2="796" stroke="rgba(11,15,26,0.10)" stroke-width="1"/>
      <g transform="translate(124 832)">
        <circle cx="10" cy="-4" r="5" fill="#e8863f"/>
        <text x="28" y="0" font-family="Geist, -apple-system, BlinkMacSystemFont, system-ui, sans-serif" font-size="20" font-weight="500" fill="#0b0f1a" letter-spacing="-0.2">eBay</text>
        <text x="400" y="0" font-family="ui-monospace, SFMono-Regular, Menlo, monospace" font-size="18" fill="#0b0f1a" text-anchor="end" letter-spacing="0.2">$32,100</text>
        <text x="560" y="0" font-family="ui-monospace, SFMono-Regular, Menlo, monospace" font-size="18" fill="#5a6171" text-anchor="end" letter-spacing="0.2">$4,190</text>
        <text x="720" y="0" font-family="ui-monospace, SFMono-Regular, Menlo, monospace" font-size="19" fill="#0b0f1a" text-anchor="end" font-weight="600" letter-spacing="0.2">$27,910</text>
        <text x="860" y="0" font-family="ui-monospace, SFMono-Regular, Menlo, monospace" font-size="18" fill="#b5651d" text-anchor="end" letter-spacing="0.2">86.9%</text>
        <text x="980" y="0" font-family="ui-monospace, SFMono-Regular, Menlo, monospace" font-size="18" fill="#5a6171" text-anchor="end" letter-spacing="0.2">289</text>
        <g transform="translate(1160 -22)"><path d="M 0.0 28.0 L 12.0 22.7 L 24.0 26.7 L 36.0 17.3 L 48.0 21.3 L 60.0 14.7 L 72.0 18.7 L 84.0 12.0 L 96.0 8.0 L 108.0 4.0 L 120.0 0.0" fill="none" stroke="#b5651d" stroke-width="1.8" stroke-linecap="round" stroke-linejoin="round"/></g>
      </g>
    </g>
    <g>
      <line x1="124" y1="872" x2="1476" y2="872" stroke="rgba(11,15,26,0.10)" stroke-width="1"/>
      <g transform="translate(124 908)">
        <circle cx="10" cy="-4" r="5" fill="#e8863f"/>
        <text x="28" y="0" font-family="Geist, -apple-system, BlinkMacSystemFont, system-ui, sans-serif" font-size="20" font-weight="500" fill="#0b0f1a" letter-spacing="-0.2">Google Shopping</text>
        <text x="400" y="0" font-family="ui-monospace, SFMono-Regular, Menlo, monospace" font-size="18" fill="#0b0f1a" text-anchor="end" letter-spacing="0.2">$88,200</text>
        <text x="560" y="0" font-family="ui-monospace, SFMono-Regular, Menlo, monospace" font-size="18" fill="#5a6171" text-anchor="end" letter-spacing="0.2">$2,310</text>
        <text x="720" y="0" font-family="ui-monospace, SFMono-Regular, Menlo, monospace" font-size="19" fill="#0b0f1a" text-anchor="end" font-weight="600" letter-spacing="0.2">$85,890</text>
        <text x="860" y="0" font-family="ui-monospace, SFMono-Regular, Menlo, monospace" font-size="18" fill="#0e7c5a" text-anchor="end" letter-spacing="0.2">97.4%</text>
        <text x="980" y="0" font-family="ui-monospace, SFMono-Regular, Menlo, monospace" font-size="18" fill="#5a6171" text-anchor="end" letter-spacing="0.2">612</text>
        <g transform="translate(1160 -22)"><path d="M 0.0 28.0 L 12.0 25.6 L 24.0 22.2 L 36.0 19.3 L 48.0 15.9 L 60.0 14.5 L 72.0 12.6 L 84.0 9.7 L 96.0 7.7 L 108.0 4.8 L 120.0 0.0" fill="none" stroke="#0e7c5a" stroke-width="1.8" stroke-linecap="round" stroke-linejoin="round"/></g>
      </g>
    </g>

  
  <g transform="translate(96 1120)">
    <line x1="0" y1="-18" x2="1408" y2="-18" stroke="rgba(11,15,26,0.10)" stroke-width="1"/>
    <g transform="translate(0 10)">
      <path d="M0 26 L14 2 L28 26 L22 26 L14 12 L6 26 Z" fill="#0b0f1a"/>
      <rect x="10.5" y="20.5" width="7" height="2.5" rx="0.4" fill="#e8863f"/>
      <text x="40" y="22" font-family="Geist, -apple-system, BlinkMacSystemFont, system-ui, sans-serif" font-size="24" font-weight="600" fill="#0b0f1a" letter-spacing="-0.3">palvento.com</text>
    </g>
    <text x="1408" y="32" font-family="ui-monospace, SFMono-Regular, Menlo, monospace" font-size="14" fill="#5a6171" text-anchor="end" letter-spacing="0.6">FBA removal · eBay insertion · TikTok Shop commission · reconciled per SKU</text>
  </g>
</svg>